<?xml version="1.0" encoding="UTF-8" standalone="no"?>
<svg width="107px" height="168px" viewBox="0 0 107 168" version="1.1" xmlns="http://www.w3.org/2000/svg" xmlns:xlink="http://www.w3.org/1999/xlink">
    <!-- Generator: Sketch 3.6.1 (26313) - http://www.bohemiancoding.com/sketch -->
    <title>Estandarte</title>
    <desc>Created with Sketch.</desc>
    <defs>
        <path id="path-1" d="M35,125 L25,138 L18,100 L10,121 L0,84 L4.4408921e-14,0 C4.4408921e-14,0 12.2551104,8 25,8 C37.7448896,8 50.5,0 50.5,0 C50.5,0 63.4948896,8 76,8 C88.5051104,8 101,0 101,0 L101,84 L91,121 L83,100 L76,138 L66,125 L50.5,155 L35,125 Z"></path>
    </defs>
    <g id="Calcula-Notas" stroke="none" stroke-width="1" fill="none" fill-rule="evenodd">
        <g id="Estandarte" transform="translate(-178.000000, -28.000000)">
            <g id="Group-4" transform="translate(181.000000, 34.000000)">
                <g id="Estandarte-Copy">
                    <mask id="mask-2" fill="white">
                        <use xlink:href="#path-1"></use>
                    </mask>
                    <use id="Mask" stroke="#BDBDBD" stroke-width="3" fill="#EEEEEE" xlink:href="#path-1"></use>
                </g>
                <g id="Group-3" transform="translate(20.000000, 30.000000)" stroke-linecap="square" stroke="#E0E0E0">
                    <g id="Arriba" transform="translate(14.000000, 0.000000)">
                        <path d="M16.5,0.5 L16.5,5.5" id="Line"></path>
                        <path d="M32.5,3.5 L29.5,7.5" id="Line-Copy-3"></path>
                        <path d="M3.5,3.5 L0.5,7.5" id="Line-Copy-4" transform="translate(2.000000, 5.500000) scale(-1, 1) translate(-2.000000, -5.500000) "></path>
                    </g>
                    <g id="Abajo" transform="translate(14.000000, 53.000000)">
                        <path d="M16.5,2.5 L16.5,7.5" id="Line-Copy-7" transform="translate(16.500000, 5.000000) scale(1, -1) translate(-16.500000, -5.000000) "></path>
                        <path d="M32.5,0.5 L29.5,4.5" id="Line-Copy-6" transform="translate(31.000000, 2.500000) scale(1, -1) translate(-31.000000, -2.500000) "></path>
                        <path d="M3.5,0.5 L0.5,4.5" id="Line-Copy-5" transform="translate(2.000000, 2.500000) scale(-1, -1) translate(-2.000000, -2.500000) "></path>
                    </g>
                    <g id="Izquierda" transform="translate(4.500000, 31.000000) scale(-1, -1) rotate(-90.000000) translate(-4.500000, -31.000000) translate(-11.000000, 27.000000)">
                        <path d="M15.5,2.5 L15.5,7.5" id="Line-Copy-7" transform="translate(15.500000, 5.000000) scale(1, -1) translate(-15.500000, -5.000000) "></path>
                        <path d="M31,2.66453526e-15 L28.5,3.5" id="Line-Copy-6" transform="translate(29.500000, 2.000000) scale(1, -1) translate(-29.500000, -2.000000) "></path>
                        <path d="M3,-8.8817842e-16 L0.5,3.5" id="Line-Copy-5" transform="translate(1.500000, 2.000000) scale(-1, -1) translate(-1.500000, -2.000000) "></path>
                    </g>
                    <g id="Derecha" transform="translate(56.500000, 31.500000) scale(1, -1) rotate(-90.000000) translate(-56.500000, -31.500000) translate(40.500000, 27.500000)">
                        <path d="M15.5,2.5 L15.5,7.5" id="Line-Copy-7" transform="translate(15.500000, 5.000000) scale(1, -1) translate(-15.500000, -5.000000) "></path>
                        <path d="M32,0 L28.5,4.5" id="Line-Copy-6" transform="translate(30.000000, 2.500000) scale(1, -1) translate(-30.000000, -2.500000) "></path>
                        <path d="M3,0 L0.5,3.5" id="Line-Copy-5" transform="translate(1.500000, 2.000000) scale(-1, -1) translate(-1.500000, -2.000000) "></path>
                    </g>
                </g>
                <g id="Sol" transform="translate(18.000000, 26.000000)">
                    <circle id="Oval-87" fill="#E0E0E0" cx="32.5" cy="34.5" r="22.5"></circle>
                    <path d="M58.5,62.5 L0.5,0.5" id="Line" stroke="#BDBDBD" stroke-linecap="square" fill="#BDBDBD"></path>
                    <path id="Line-decoration-1" d="M0.5,0.5 L5.68728275,10.4364027 L10.0689112,6.33745988 L0.5,0.5 Z" stroke="#BDBDBD" stroke-linecap="square" fill="#BDBDBD"></path>
                    <circle id="Oval-88" fill="#E0E0E0" cx="33" cy="36" r="20"></circle>
                </g>
            </g>
        </g>
    </g>
</svg>