<?xml version="1.0" encoding="UTF-8" standalone="no"?>
<svg width="177px" height="143px" viewBox="0 0 177 143" version="1.1" xmlns="http://www.w3.org/2000/svg" xmlns:xlink="http://www.w3.org/1999/xlink">
    <!-- Generator: Sketch 3.6.1 (26313) - http://www.bohemiancoding.com/sketch -->
    <title>Cabeza</title>
    <desc>Created with Sketch.</desc>
    <defs></defs>
    <g id="Calcula-Notas" stroke="none" stroke-width="1" fill="none" fill-rule="evenodd">
        <g id="Ned-Stark" transform="translate(-411.000000, -29.000000)">
            <g id="Ned-Stark-Copy" transform="translate(415.000000, 31.000000)">
                <g id="Cabeza">
                    <g id="Coletita" transform="translate(0.000000, 97.000000)" stroke="#BDBDBD" stroke-width="1.5" fill="#E0E0E0">
                        <path d="M10,17 C10,17 18,9 18,0 L23,0 C23,0 24,14.0040703 23,16 C22,17.9959297 15,24 15,24 C10,28 0,28 0,28 L10,17 Z" id="Rectangle-7"></path>
                        <path d="M155,16 C155,16 163,9 163,0 L168.555556,0 C168.555556,0 169.555556,14.0040703 168.555556,16 C167.555556,17.9959297 160,23 160,23 C155,27 144,26 144,26 L155,16 Z" id="Rectangle-7-Copy" transform="translate(156.500000, 13.055556) scale(-1, 1) translate(-156.500000, -13.055556) "></path>
                    </g>
                    <g id="Orejas" transform="translate(14.000000, 66.000000)" stroke="#BDBDBD" stroke-width="1.5" fill="#E0E0E0">
                        <ellipse id="Oreja-izq" cx="12" cy="17" rx="12" ry="17"></ellipse>
                        <ellipse id="Oreja-der" transform="translate(128.000000, 17.000000) scale(-1, 1) translate(-128.000000, -17.000000) " cx="128" cy="17" rx="12" ry="17"></ellipse>
                    </g>
                    <g id="Cara" transform="translate(22.000000, 0.000000)">
                        <path d="M9,59 C9,59 24,42.9999998 29,29 C30.5913016,24.5443556 40,18 45,18 C46.3035411,18 54,17 57,21 C57.4552585,21.6070113 61,22.9999998 62,22.9999998 C62.2042814,22.9999998 67,16 69,13 C69.6395287,12.040707 73.4442551,18.0265631 80,18 C93.9460559,17.9434921 99,29.9999996 99,29.9999996 L115,63.9999996 L115,107.089951 C115,107.089951 107,118.953094 95,118.953094 L73,118.953094 L67,118.953098 L57,118.953098 L50,118.953094 L27,118.953094 C17,118.953094 9,107.089951 9,107.089951 L9,59 Z" fill="#EEEEEE"></path>
                        <path d="M34,109 C34,102.372583 39.3751469,97 46.0011119,97 L75.9988881,97 C82.6269192,97 88,102.371126 88,109 L88,121 L78.8974915,121 L78.8974915,110.266112 C78.8974915,107.504754 76.6665982,105.266232 73.9011241,105.266232 L48.2306527,105.266232 C45.4712352,105.266232 43.2342854,107.503788 43.2342854,110.266112 L43.2342854,121 L34,121 L34,109 Z" id="Bigote" stroke="#BDBDBD" stroke-width="1.5" fill="#E0E0E0"></path>
                        <path d="M0,38.0053289 C0,17.0155653 17.0057342,0 37.9916368,0 L85.0083632,0 C105.990565,0 123,17.0093452 123,38.0053289 L123,104.996775 C123,123.776237 107.778973,139 89.0029636,139 L33.9970364,139 C15.2209917,139 0,123.776885 0,104.996775 L0,38.0053289 Z M9,59 C9,59 24,42.9999998 29,29 C30.5913016,24.5443556 40,18 45,18 C46.3035411,18 54,17 57,21 C57.4552585,21.6070113 61,25 62,25 C62.2042814,25 66,24 68,21 C68.6395287,20.040707 73.4442551,18.0265631 80,18 C93.9460559,17.9434921 99,29.9999996 99,29.9999996 L115,63.9999996 L115,107.089951 C115,107.089951 107,118.953094 95,118.953094 C83,118.953094 73,119.10479 73,118.953094 C73,118.953098 73,110.838425 67.1881371,110.838425 C63.8048706,111.023576 59,110.838425 56,110.838425 C50,110.838425 50,121 50,118.953094 L27,118.953094 C17,118.953094 9,107.089951 9,107.089951 L9,59 Z" id="Pelo" stroke="#BDBDBD" stroke-width="1.5" fill="#E0E0E0"></path>
                    </g>
                    <g id="Flequillo" transform="translate(11.000000, 11.000000)" stroke="#BDBDBD" stroke-width="1.5" fill="#E0E0E0">
                        <path d="M33,9.00000002 C35,4.00000002 37.1659241,2.4316259e-09 50.082962,1.85437443e-08 C63,3.46558622e-08 71,15 71,15 C71,15 64.8587091,11.5364208 59,11 C53.9254915,10.5353803 49.0224938,12.9863478 49,13 C40.2050397,18.3379281 38.5321424,34.8714306 38,37 C37,41 34.884045,45.115955 31,49 C24.9629459,55.0370541 19,60 14,60 L9.36142897e-09,60 C9.36142897e-09,60 7.64563181,56.0628954 13.9999998,50 C19.1520095,45.0843112 21,44 24,37 C25.2559191,34.069522 31,14 33,9.00000002 Z" id="Rectangle-4"></path>
                        <path d="M107,9.00000002 C109,4.00000002 111.165924,2.4316259e-09 124.082962,1.85437443e-08 C137,3.46558622e-08 145,15 145,15 C145,15 138.858709,11.5364208 133,11 C127.925491,10.5353803 123.022494,12.9863478 123,13 C114.20504,18.3379281 112.532142,34.8714306 112,37 C111,41 108.884045,45.115955 105,49 C98.9629459,55.0370541 93,60 88,60 L74,60 C74,60 81.6456318,56.0628954 87.9999998,50 C93.1520095,45.0843112 95,44 98,37 C99.2559191,34.069522 105,14 107,9.00000002 Z" id="Rectangle-4-Copy" transform="translate(109.500000, 30.000000) scale(-1, 1) translate(-109.500000, -30.000000) "></path>
                    </g>
                    <g id="Ojos" transform="translate(42.000000, 71.000000)">
                        <g id="Ojo-izq">
                            <path d="M14.9286939,11.7267505 C19.2209409,11.7267505 22.7004946,9.33504662 22.7004946,6.38473038 L16.0362785,6.38473038 L7.15689325,6.38473038 C7.15689325,9.33504662 10.6364469,11.7267505 14.9286939,11.7267505 Z" id="Oval-3" fill="#E0E0E0" transform="translate(14.928694, 9.055740) rotate(-341.000000) translate(-14.928694, -9.055740) "></path>
                            <path d="M0.5,0.5 L23.5,8.5" id="Line" stroke="#BDBDBD" stroke-width="2" stroke-linecap="square"></path>
                        </g>
                        <g id="Ojo-der" transform="translate(72.000000, 7.500000) scale(-1, 1) translate(-72.000000, -7.500000) translate(60.000000, 0.000000)">
                            <path d="M14.9286939,11.7267505 C19.2209409,11.7267505 22.7004946,9.33504662 22.7004946,6.38473038 L16.0362785,6.38473038 L7.15689325,6.38473038 C7.15689325,9.33504662 10.6364469,11.7267505 14.9286939,11.7267505 Z" id="Oval-3" fill="#E0E0E0" transform="translate(14.928694, 9.055740) rotate(-341.000000) translate(-14.928694, -9.055740) "></path>
                            <path d="M0.5,0.5 L23.5,8.5" id="Line" stroke="#BDBDBD" stroke-width="2" stroke-linecap="square"></path>
                        </g>
                    </g>
                </g>
            </g>
        </g>
    </g>
</svg>