<?xml version="1.0" encoding="UTF-8" standalone="no"?>
<svg width="177px" height="237px" viewBox="0 0 177 237" version="1.1" xmlns="http://www.w3.org/2000/svg" xmlns:xlink="http://www.w3.org/1999/xlink">
    <!-- Generator: Sketch 3.6.1 (26313) - http://www.bohemiancoding.com/sketch -->
    <title>Ned Stark Copy</title>
    <desc>Created with Sketch.</desc>
    <defs></defs>
    <g id="Calcula-Notas" stroke="none" stroke-width="1" fill="none" fill-rule="evenodd">
        <g id="Ned-Stark" transform="translate(-221.000000, -29.000000)">
            <g id="Ned-Stark-Copy" transform="translate(225.000000, 31.000000)">
                <g id="Capa" transform="translate(7.000000, 111.000000)">
                    <path d="M7,1 C7,1.00000011 145,1.00000009 145,1 C145,28 153,109 153,109 C153,109 137,106 133,106 C129,106 127,108 120,108 C118.670761,108 101,110 102,107 C100,104.905518 93.7336093,97.9188813 91,98 C87.4735318,98.1046464 75.8969197,99.742506 70,100 C66.3311765,100.160202 59.3896652,103.91219 55,108.094482 C53,110 47,107 39,107 C27,107 25,106 22,106 C14,106 7,107 0,110 C0,101 7,46.0000001 7,1 Z" id="Rectangle-11" stroke="#212121" stroke-width="1.5" fill="#424242"></path>
                    <path d="M49,95 C49,96.9135416 49,101 55,108 C55,108 60.6441033,103.771839 66,103 C71.043416,102.273193 75.7431752,103 78,103 L91,103 C92.7455068,103 102,108 102,108 C107,101 107,96.2475896 107,95 C107,92 107,80.1122737 107,69 C107,42.490332 94.0162577,21 78,21 C61.9837423,21 49,42.490332 49,69 L49,95 Z" id="Oval-10" stroke="#212121" fill="#424242"></path>
                    <g id="Piernas" transform="translate(51.000000, 47.000000)" stroke="#424242" fill="#616161">
                        <path d="M34,21 L54.0869565,3 L55,36 L38.2,36 L34,21 Z" id="Rectangle-12"></path>
                        <path d="M0.000229329266,21 C-0.0166603561,20.8599936 0.904992375,21 0.904992375,21 L19.0002535,2.63634714e-07 L19.0002533,36 L2.71451847,36 C2.71451847,36 0.586515007,25.8599936 0.000229329266,21 Z" id="Rectangle-12-Copy" transform="translate(9.500127, 18.000000) scale(-1, 1) translate(-9.500127, -18.000000) "></path>
                    </g>
                    <g id="Molletes" transform="translate(8.000000, 0.000000)" stroke="#212121" fill="#616161">
                        <path d="M18,36 C22,36 28,29 31,29 C34,29 50,24.1065539 50,18 C50,8.0588745 34,0 25,0 C16,0 0,8.0588745 0,18 C0,27.9411255 8,36 18,36 Z" id="Oval-11"></path>
                        <path d="M111,36 C117,36 126,30 129,30 C132,30 141,24.1065539 141,18 C141,8.0588745 125,0 116,0 C107,0 91,8.0588745 91,18 C91,27.9411255 101,36 111,36 Z" id="Oval-11-Copy" transform="translate(116.000000, 18.000000) scale(-1, 1) translate(-116.000000, -18.000000) "></path>
                    </g>
                </g>
                <g id="Cabeza">
                    <g id="Coletita" transform="translate(0.000000, 97.000000)" stroke="#212121" stroke-width="1.5" fill="#424242">
                        <path d="M10,17 C10,17 18,9 18,0 L23,0 C23,0 24,14.0040703 23,16 C22,17.9959297 15,24 15,24 C10,28 0,28 0,28 L10,17 Z" id="Rectangle-7"></path>
                        <path d="M155,16 C155,16 163,9 163,0 L168.555556,0 C168.555556,0 169.555556,14.0040703 168.555556,16 C167.555556,17.9959297 160,23 160,23 C155,27 144,26 144,26 L155,16 Z" id="Rectangle-7-Copy" transform="translate(156.500000, 13.055556) scale(-1, 1) translate(-156.500000, -13.055556) "></path>
                    </g>
                    <g id="Orejas" transform="translate(14.000000, 66.000000)" stroke="#212121" stroke-width="1.5" fill="#616161">
                        <ellipse id="Oreja-izq" cx="12" cy="17" rx="12" ry="17"></ellipse>
                        <ellipse id="Oreja-der" transform="translate(128.000000, 17.000000) scale(-1, 1) translate(-128.000000, -17.000000) " cx="128" cy="17" rx="12" ry="17"></ellipse>
                    </g>
                    <g id="Cara" transform="translate(22.000000, 0.000000)">
                        <path d="M9,59 C9,59 24,42.9999998 29,29 C30.5913016,24.5443556 40,18 45,18 C46.3035411,18 54,17 57,21 C57.4552585,21.6070113 61,22.9999998 62,22.9999998 C62.2042814,22.9999998 67,16 69,13 C69.6395287,12.040707 73.4442551,18.0265631 80,18 C93.9460559,17.9434921 99,29.9999996 99,29.9999996 L115,63.9999996 L115,107.089951 C115,107.089951 107,118.953094 95,118.953094 L73,118.953094 L67,118.953098 L57,118.953098 L50,118.953094 L27,118.953094 C17,118.953094 9,107.089951 9,107.089951 L9,59 Z" fill="#616161"></path>
                        <path d="M34,109 C34,102.372583 39.3751469,97 46.0011119,97 L75.9988881,97 C82.6269192,97 88,102.371126 88,109 L88,121 L78.8974915,121 L78.8974915,110.266112 C78.8974915,107.504754 76.6665982,105.266232 73.9011241,105.266232 L48.2306527,105.266232 C45.4712352,105.266232 43.2342854,107.503788 43.2342854,110.266112 L43.2342854,121 L34,121 L34,109 Z" id="Bigote" stroke="#212121" stroke-width="1.5" fill="#424242"></path>
                        <path d="M0,38.0053289 C0,17.0155653 17.0057342,0 37.9916368,0 L85.0083632,0 C105.990565,0 123,17.0093452 123,38.0053289 L123,104.996775 C123,123.776237 107.778973,139 89.0029636,139 L33.9970364,139 C15.2209917,139 0,123.776885 0,104.996775 L0,38.0053289 Z M9,59 C9,59 24,42.9999998 29,29 C30.5913016,24.5443556 40,18 45,18 C46.3035411,18 54,17 57,21 C57.4552585,21.6070113 61,25 62,25 C62.2042814,25 66,24 68,21 C68.6395287,20.040707 73.4442551,18.0265631 80,18 C93.9460559,17.9434921 99,29.9999996 99,29.9999996 L115,63.9999996 L115,107.089951 C115,107.089951 107,118.953094 95,118.953094 C83,118.953094 73,119.10479 73,118.953094 C73,118.953098 73,110.838425 67.1881371,110.838425 C63.8048706,111.023576 59,110.838425 56,110.838425 C50,110.838425 50,121 50,118.953094 L27,118.953094 C17,118.953094 9,107.089951 9,107.089951 L9,59 Z" id="Pelo" stroke="#212121" stroke-width="1.5" fill="#424242"></path>
                    </g>
                    <g id="Flequillo" transform="translate(11.000000, 11.000000)" stroke="#212121" stroke-width="1.5" fill="#424242">
                        <path d="M33,9.00000002 C35,4.00000002 37.1659241,2.4316259e-09 50.082962,1.85437443e-08 C63,3.46558622e-08 71,15 71,15 C71,15 64.8587091,11.5364208 59,11 C53.9254915,10.5353803 49.0224938,12.9863478 49,13 C40.2050397,18.3379281 38.5321424,34.8714306 38,37 C37,41 34.884045,45.115955 31,49 C24.9629459,55.0370541 19,60 14,60 L9.36142897e-09,60 C9.36142897e-09,60 7.64563181,56.0628954 13.9999998,50 C19.1520095,45.0843112 21,44 24,37 C25.2559191,34.069522 31,14 33,9.00000002 Z" id="Rectangle-4"></path>
                        <path d="M107,9.00000002 C109,4.00000002 111.165924,2.4316259e-09 124.082962,1.85437443e-08 C137,3.46558622e-08 145,15 145,15 C145,15 138.858709,11.5364208 133,11 C127.925491,10.5353803 123.022494,12.9863478 123,13 C114.20504,18.3379281 112.532142,34.8714306 112,37 C111,41 108.884045,45.115955 105,49 C98.9629459,55.0370541 93,60 88,60 L74,60 C74,60 81.6456318,56.0628954 87.9999998,50 C93.1520095,45.0843112 95,44 98,37 C99.2559191,34.069522 105,14 107,9.00000002 Z" id="Rectangle-4-Copy" transform="translate(109.500000, 30.000000) scale(-1, 1) translate(-109.500000, -30.000000) "></path>
                    </g>
                    <g id="Ojos" transform="translate(42.000000, 71.000000)">
                        <g id="Ojo-izq">
                            <path d="M14.9286939,11.7267505 C19.2209409,11.7267505 22.7004946,9.33504662 22.7004946,6.38473038 L16.0362785,6.38473038 L7.15689325,6.38473038 C7.15689325,9.33504662 10.6364469,11.7267505 14.9286939,11.7267505 Z" id="Oval-3" fill="#424242" transform="translate(14.928694, 9.055740) rotate(-341.000000) translate(-14.928694, -9.055740) "></path>
                            <path d="M0.5,0.5 L23.5,8.5" id="Line" stroke="#212121" stroke-width="2" stroke-linecap="square"></path>
                        </g>
                        <g id="Ojo-der" transform="translate(72.000000, 7.500000) scale(-1, 1) translate(-72.000000, -7.500000) translate(60.000000, 0.000000)">
                            <path d="M14.9286939,11.7267505 C19.2209409,11.7267505 22.7004946,9.33504662 22.7004946,6.38473038 L16.0362785,6.38473038 L7.15689325,6.38473038 C7.15689325,9.33504662 10.6364469,11.7267505 14.9286939,11.7267505 Z" id="Oval-3" fill="#424242" transform="translate(14.928694, 9.055740) rotate(-341.000000) translate(-14.928694, -9.055740) "></path>
                            <path d="M0.5,0.5 L23.5,8.5" id="Line" stroke="#212121" stroke-width="2" stroke-linecap="square"></path>
                        </g>
                    </g>
                </g>
                <g id="Espada" transform="translate(53.000000, 129.000000)" stroke="#212121">
                    <path d="M51.2571621,44 L12.7428379,44 C11.7340462,42.7784967 10.2079369,42 8.5,42 C5.46243388,42 3,44.4624339 3,47.5 C3,50.5375661 5.46243388,53 8.5,53 C10.2079369,53 11.7340462,52.2215033 12.7428379,51 L24,51 L24,86 L32,103 L40,86 L40,51 L51.2571621,51 C52.2659538,52.2215033 53.7920631,53 55.5,53 C58.5375661,53 61,50.5375661 61,47.5 C61,44.4624339 58.5375661,42 55.5,42 C53.7920631,42 52.2659538,42.7784967 51.2571621,44 Z M32,13 C36.418278,13 40,10.0898509 40,6.5 C40,2.91014913 36.418278,0 32,0 C27.581722,0 24,2.91014913 24,6.5 C24,10.0898509 27.581722,13 32,13 Z" id="Combined-Shape" stroke-width="2" fill="#424242"></path>
                    <g id="Manos" transform="translate(0.000000, 8.000000)" stroke-width="3" fill="#616161">
                        <circle id="Oval-1" cx="19.5" cy="19.5" r="19.5"></circle>
                        <circle id="Oval-1-Copy" cx="40.5" cy="19.5" r="19.5"></circle>
                    </g>
                </g>
            </g>
        </g>
    </g>
</svg>